<svg width="773" height="315" viewBox="0 0 773 315" fill="none" xmlns="http://www.w3.org/2000/svg">
<path d="M0 132.67V0H19.1942V61.9127L74.5727 0H98.4506L39.9497 64.7688L102.767 132.67H78.1544L19.1942 69.2832V132.67H0Z" fill="#111111"/>
<path d="M199.268 33.1675V132.67H180.808V63.4789L131.215 132.67H115.603V33.1675H134.062V100.977L183.747 33.1675H199.268Z" fill="#111111"/>
<path d="M271.494 135.434C262.004 135.434 254.045 133.131 247.616 128.524C241.187 123.856 236.32 117.56 233.014 109.637C229.708 101.714 228.055 92.7769 228.055 82.8266C228.055 72.8764 229.677 63.9396 232.922 56.0162C236.228 48.0929 241.065 41.8586 247.432 37.3134C253.861 32.7068 261.759 30.4035 271.127 30.4035C280.433 30.4035 288.454 32.7068 295.188 37.3134C301.984 41.8586 307.219 48.0929 310.893 56.0162C314.566 63.8782 316.403 72.815 316.403 82.8266C316.403 92.7769 314.566 101.744 310.893 109.729C307.28 117.653 302.107 123.917 295.372 128.524C288.698 133.131 280.739 135.434 271.494 135.434ZM224.84 176.893V33.1675H241.922V104.754H244.126V176.893H224.84ZM268.831 118.021C274.953 118.021 280.004 116.455 283.984 113.322C288.025 110.19 291.025 105.982 292.984 100.7C295.005 95.3566 296.015 89.3987 296.015 82.8266C296.015 76.316 295.005 70.4195 292.984 65.1373C291.025 59.8551 287.994 55.6477 283.892 52.5152C279.79 49.3827 274.555 47.8165 268.188 47.8165C262.188 47.8165 257.228 49.2906 253.31 52.2388C249.453 55.187 246.575 59.3023 244.677 64.5845C242.841 69.8667 241.922 75.9474 241.922 82.8266C241.922 89.7058 242.841 95.7865 244.677 101.069C246.514 106.351 249.422 110.497 253.402 113.507C257.382 116.516 262.525 118.021 268.831 118.021Z" fill="#111111"/>
<path d="M364.691 135.434C357.344 135.434 351.191 134.083 346.232 131.38C341.272 128.616 337.507 124.992 334.936 120.509C332.425 115.963 331.17 110.988 331.17 105.583C331.17 100.547 332.058 96.1243 333.834 92.3162C335.609 88.5081 338.242 85.2835 341.732 82.6424C345.222 79.9398 349.507 77.7594 354.589 76.101C358.997 74.8111 363.987 73.6749 369.559 72.6921C375.13 71.7094 380.977 70.788 387.1 69.9281C393.284 69.0683 399.406 68.2084 405.467 67.3484L398.488 71.218C398.61 63.4175 396.957 57.6439 393.528 53.8972C390.161 50.0891 384.345 48.185 376.079 48.185C370.875 48.185 366.099 49.4134 361.752 51.8703C357.405 54.2657 354.375 58.2581 352.66 63.8474L334.752 58.3195C337.201 49.782 341.854 42.9949 348.711 37.9584C355.63 32.9218 364.814 30.4035 376.263 30.4035C385.141 30.4035 392.855 31.9391 399.406 35.0101C406.018 38.0198 410.855 42.8106 413.917 49.3827C415.508 52.6381 416.488 56.0776 416.855 59.7015C417.223 63.3254 417.406 67.2256 417.406 71.4023V132.67H400.416V109.913L403.723 112.862C399.62 120.478 394.386 126.159 388.018 129.906C381.712 133.591 373.936 135.434 364.691 135.434ZM368.089 119.679C373.538 119.679 378.222 118.727 382.141 116.823C386.059 114.858 389.212 112.37 391.6 109.361C393.988 106.351 395.549 103.218 396.284 99.9632C397.324 97.0149 397.906 93.6982 398.029 90.0129C398.212 86.3276 398.304 83.3794 398.304 81.1683L404.549 83.4715C398.488 84.3929 392.977 85.2221 388.018 85.9591C383.059 86.6962 378.559 87.4332 374.518 88.1703C370.538 88.8459 366.987 89.6751 363.865 90.6578C361.232 91.5792 358.875 92.6847 356.793 93.9746C354.773 95.2644 353.15 96.8307 351.926 98.6733C350.762 100.516 350.181 102.758 350.181 105.399C350.181 107.979 350.824 110.374 352.109 112.585C353.395 114.735 355.354 116.455 357.987 117.745C360.62 119.034 363.987 119.679 368.089 119.679Z" fill="#111111"/>
<path d="M0 312.236V179.566H19.1942V236.227H48.2151V255.575H19.1942V312.236H0ZM98.9098 315C90.0933 315 82.2871 313.311 75.4911 309.933C68.695 306.555 62.9704 301.794 58.3173 295.652C53.6641 289.449 50.1131 282.14 47.664 273.725C45.2763 265.249 44.0823 255.974 44.0823 245.901C44.0823 235.767 45.2763 226.492 47.664 218.077C50.1131 209.662 53.6641 202.384 58.3173 196.242C62.9704 190.038 68.695 185.278 75.4911 181.961C82.2871 178.583 90.0933 176.894 98.9098 176.894C107.665 176.894 115.441 178.583 122.237 181.961C129.033 185.278 134.757 190.038 139.411 196.242C144.064 202.384 147.584 209.662 149.972 218.077C152.421 226.492 153.645 235.767 153.645 245.901C153.645 256.158 152.421 265.525 149.972 274.001C147.584 282.416 144.064 289.694 139.411 295.837C134.757 301.979 129.033 306.708 122.237 310.025C115.441 313.342 107.665 315 98.9098 315ZM98.9098 296.666C104.665 296.666 109.686 295.407 113.971 292.888C118.318 290.309 121.9 286.715 124.716 282.109C127.533 277.502 129.645 272.128 131.053 265.986C132.523 259.782 133.257 253.087 133.257 245.901C133.319 238.715 132.645 232.051 131.237 225.908C129.829 219.705 127.686 214.33 124.808 209.785C121.992 205.179 118.41 201.586 114.063 199.006C109.716 196.426 104.665 195.136 98.9098 195.136C93.0934 195.136 88.0117 196.426 83.6647 199.006C79.3789 201.586 75.8278 205.179 73.0114 209.785C70.195 214.33 68.0828 219.705 66.6746 225.908C65.2664 232.051 64.5317 238.715 64.4705 245.901C64.4705 253.087 65.1746 259.782 66.5828 265.986C67.991 272.128 70.1032 277.502 72.9196 282.109C75.7359 286.715 79.3177 290.309 83.6647 292.888C88.0117 295.407 93.0934 296.666 98.9098 296.666Z" fill="#111111"/>
<path d="M157.409 312.236L194.512 261.932L158.236 212.734H181.012L205.716 246.914L230.145 212.734H252.921L216.645 261.932L253.84 312.236H230.972L205.716 276.95L180.277 312.236H157.409Z" fill="#111111"/>
<path d="M294.142 312.236V230.054H260.254V212.734H347.225V230.054H313.336V312.236H294.142Z" fill="#111111"/>
<path d="M408.653 315C398.796 315 390.132 312.85 382.663 308.551C375.255 304.19 369.469 298.14 365.305 290.401C361.203 282.6 359.152 273.571 359.152 263.314C359.152 252.442 361.173 243.014 365.214 235.029C369.316 227.045 375.01 220.872 382.296 216.511C389.581 212.15 398.061 209.97 407.735 209.97C417.837 209.97 426.439 212.334 433.541 217.064C440.643 221.732 445.939 228.396 449.429 237.056C452.98 245.717 454.388 256.005 453.654 267.921H434.46V260.919C434.337 249.371 432.133 240.834 427.847 235.306C423.623 229.778 417.163 227.014 408.469 227.014C398.857 227.014 391.632 230.054 386.796 236.135C381.959 242.216 379.54 250.999 379.54 262.485C379.54 273.418 381.959 281.894 386.796 287.913C391.632 293.871 398.612 296.85 407.735 296.85C413.735 296.85 418.908 295.499 423.255 292.796C427.664 290.032 431.092 286.101 433.541 281.003L452.368 286.992C448.511 295.898 442.664 302.808 434.827 307.722C426.99 312.574 418.265 315 408.653 315ZM373.295 267.921V252.903H444.103V267.921H373.295Z" fill="#111111"/>
<path d="M474.167 312.236V212.734H493.361V253.364H541.76V212.734H560.954V312.236H541.76V271.514H493.361V312.236H474.167Z" fill="#111111"/>
<path d="M586.633 312.236L586.725 212.734H606.194V260.642L645.134 212.734H669.563L628.419 262.485L673.787 312.236H647.705L606.194 264.327V312.236H586.633Z" fill="#111111"/>
<path d="M724.326 315C714.407 315 705.805 312.758 698.519 308.274C691.233 303.791 685.6 297.618 681.621 289.756C677.702 281.832 675.743 272.711 675.743 262.393C675.743 252.012 677.764 242.891 681.804 235.029C685.845 227.106 691.509 220.964 698.795 216.603C706.08 212.181 714.591 209.97 724.326 209.97C734.244 209.97 742.846 212.211 750.132 216.695C757.418 221.179 763.051 227.352 767.03 235.214C771.01 243.076 773 252.135 773 262.393C773 272.773 770.979 281.925 766.938 289.848C762.959 297.71 757.326 303.883 750.04 308.366C742.755 312.789 734.183 315 724.326 315ZM724.326 296.85C733.816 296.85 740.887 293.656 745.54 287.268C750.255 280.819 752.612 272.527 752.612 262.393C752.612 252.012 750.224 243.721 745.448 237.517C740.734 231.252 733.693 228.12 724.326 228.12C717.897 228.12 712.601 229.594 708.438 232.542C704.274 235.429 701.182 239.452 699.162 244.611C697.141 249.709 696.131 255.636 696.131 262.393C696.131 272.834 698.519 281.188 703.295 287.453C708.07 293.718 715.081 296.85 724.326 296.85Z" fill="#111111"/>
</svg>
